<svg width="24" height="24" viewBox="0 0 24 24" fill="none" xmlns="http://www.w3.org/2000/svg">
<path d="M2.92676 3H2.93112C3.18987 3 3.39752 2.79014 3.39752 2.53125C3.39752 2.27236 3.18546 2.0625 2.92676 2.0625C2.66782 2.0625 2.45801 2.27236 2.45801 2.53125C2.45801 2.79014 2.66782 3 2.92676 3ZM5.05957 3H5.06393C5.32287 3 5.53048 2.79014 5.53048 2.53125C5.53048 2.27236 5.31846 2.0625 5.05957 2.0625C4.80068 2.0625 4.59082 2.27236 4.59082 2.53125C4.59082 2.79014 4.80063 3 5.05957 3ZM7.19252 3H7.19693C7.45568 3 7.66348 2.79014 7.66348 2.53125C7.66348 2.27236 7.45127 2.0625 7.19252 2.0625C6.93363 2.0625 6.72377 2.27236 6.72377 2.53125C6.72377 2.79014 6.93363 3 7.19252 3ZM10.8631 2.99981H17.3899C17.6488 2.99981 17.8586 2.79 17.8586 2.53106C17.8586 2.27231 17.6488 2.0625 17.3899 2.0625H10.8631C10.6043 2.0625 10.3943 2.27236 10.3943 2.53106C10.3943 2.79 10.6042 2.99981 10.8631 2.99981ZM19.8742 12.5621C19.751 12.5621 19.63 12.6121 19.5428 12.6995C19.4553 12.7875 19.4059 12.9065 19.4055 13.0307C19.4055 13.1541 19.4556 13.275 19.5428 13.3621C19.63 13.4493 19.751 13.4994 19.8742 13.4994C19.9975 13.4994 20.1183 13.4493 20.2055 13.3621C20.2927 13.2749 20.343 13.1541 20.343 13.0307C20.343 12.9075 20.2928 12.7866 20.2055 12.6995C20.1175 12.6118 19.9984 12.5625 19.8742 12.5621ZM10.0615 8.24962H9.47763C9.21874 8.24962 9.00888 8.45948 9.00888 8.71837V12.0932C9.00888 12.3521 9.21874 12.5619 9.47763 12.5619H10.0614C11.2501 12.5619 12.2175 11.5948 12.2175 10.4059C12.2175 9.21698 11.2503 8.24962 10.0614 8.24962H10.0615ZM10.0615 11.6244H9.94643V9.18712H10.0615C10.7334 9.18712 11.28 9.73387 11.28 10.4059C11.28 11.0779 10.7335 11.6244 10.0615 11.6244ZM6.8928 8.56898C6.86152 8.47595 6.80182 8.39509 6.72212 8.33781C6.64242 8.28053 6.54674 8.24971 6.44859 8.24971C6.35044 8.24971 6.25477 8.28053 6.17507 8.33781C6.09537 8.39509 6.03567 8.47595 6.00438 8.56898L4.86874 11.9437C4.84802 12.0024 4.83917 12.0645 4.84269 12.1265C4.84621 12.1886 4.86203 12.2493 4.88924 12.3052C4.91645 12.3611 4.95451 12.411 5.00119 12.4521C5.04787 12.4931 5.10225 12.5244 5.16116 12.5443C5.22007 12.5641 5.28233 12.572 5.34433 12.5675C5.40632 12.5631 5.46681 12.5463 5.52227 12.5183C5.57774 12.4902 5.62707 12.4514 5.66739 12.4041C5.70772 12.3568 5.73823 12.302 5.75716 12.2428L5.7918 12.14H7.10538L7.13979 12.2428C7.17112 12.3358 7.23083 12.4166 7.31053 12.4739C7.39022 12.5312 7.48588 12.562 7.58402 12.5621C7.63366 12.5621 7.68401 12.5542 7.7336 12.5376C7.97899 12.455 8.11099 12.1891 8.02826 11.9437L6.8928 8.56898ZM6.10709 11.2027L6.44857 10.1882L6.78991 11.2027H6.10709Z" fill="#111111"/>
<path d="M23.8627 20.0244L20.6755 16.8373L21.7989 15.7141C21.8565 15.6565 21.8981 15.5848 21.9195 15.5061C21.941 15.4274 21.9415 15.3445 21.9211 15.2656C21.9008 15.1867 21.8602 15.1144 21.8033 15.0559C21.7465 14.9975 21.6754 14.9549 21.5971 14.9323L14.8119 12.9781V6.84338C14.8119 6.58463 14.6021 6.37481 14.3432 6.37481H2.71856C2.45981 6.37481 2.25 6.58467 2.25 6.84338V13.9682C2.25 14.2271 2.45986 14.4369 2.71856 14.4369H12.8712L13.6813 17.2493H1.40625C1.14769 17.2493 0.9375 17.0391 0.9375 16.7805V5.06231H19.4055V11.1559C19.4055 11.4146 19.6154 11.6244 19.8743 11.6244C20.133 11.6244 20.343 11.4146 20.343 11.1559V1.40625C20.343 0.630797 19.7122 0 18.9368 0H1.40625C0.630797 0 0 0.630797 0 1.40625V16.7805C0 17.556 0.630797 18.1868 1.40625 18.1868H13.9512L14.933 21.5962C14.9555 21.6746 14.9981 21.7457 15.0566 21.8025C15.115 21.8593 15.1873 21.8999 15.2662 21.9203C15.3452 21.9407 15.4281 21.9401 15.5068 21.9186C15.5854 21.8972 15.6572 21.8556 15.7148 21.798L16.838 20.6748L20.0251 23.862C20.0687 23.9054 20.1203 23.9399 20.1772 23.9635C20.2341 23.987 20.295 23.9991 20.3565 23.9991C20.4181 23.9991 20.479 23.987 20.5359 23.9635C20.5928 23.9399 20.6444 23.9054 20.688 23.862L23.8627 20.6873C24.0458 20.5042 24.0458 20.2073 23.8627 20.0244ZM1.40625 0.9375H18.9368C19.1951 0.9375 19.4055 1.14769 19.4055 1.40625V4.12481H0.9375V1.40625C0.9375 1.14769 1.14769 0.9375 1.40625 0.9375ZM3.18731 13.4994V7.31213H13.8744V12.708L13.0525 12.4713C12.8884 12.4243 12.7119 12.4697 12.5912 12.5903C12.4705 12.711 12.4252 12.8877 12.4722 13.0516L12.6013 13.4994H3.18731ZM20.3565 22.8675L17.1696 19.6804C17.1261 19.6368 17.0745 19.6022 17.0176 19.5786C16.9607 19.5551 16.8998 19.543 16.8382 19.543C16.7766 19.5429 16.7156 19.555 16.6587 19.5786C16.6018 19.6022 16.5501 19.6368 16.5066 19.6804L15.614 20.5732L13.6077 13.6069L20.5739 15.613L19.6813 16.5059C19.6377 16.5494 19.6032 16.601 19.5796 16.6579C19.556 16.7148 19.5439 16.7757 19.5439 16.8373C19.5439 16.8988 19.556 16.9598 19.5796 17.0166C19.6032 17.0735 19.6377 17.1252 19.6813 17.1687L22.8684 20.3557L20.3565 22.8675Z" fill="#111111"/>
<path d="M5.98902 16.3118C6.24791 16.3118 6.45777 16.102 6.45777 15.8433C6.45777 15.5844 6.24791 15.3745 5.98902 15.3745H2.78558C2.52665 15.3745 2.31683 15.5844 2.31683 15.8433C2.31683 16.102 2.52665 16.3118 2.78558 16.3118H5.98902ZM8.1718 16.1747C8.25937 16.0866 8.30871 15.9675 8.30915 15.8433C8.30915 15.72 8.25913 15.599 8.1718 15.5119C8.0837 15.4243 7.96463 15.3749 7.8404 15.3745C7.71621 15.3749 7.59719 15.4243 7.50913 15.5119C7.42156 15.6 7.37222 15.719 7.37179 15.8433C7.37179 15.9665 7.4218 16.0875 7.50913 16.1747C7.59719 16.2622 7.71621 16.3116 7.8404 16.312C7.96382 16.312 8.08462 16.2619 8.1718 16.1747Z" fill="#111111"/>
</svg>
