<svg width="24" height="24" viewBox="0 0 24 24" fill="none" xmlns="http://www.w3.org/2000/svg">
<path d="M23.1978 18.3986V15.1989C23.1951 14.4716 22.7021 13.8377 21.9979 13.6559V10.9946C21.9983 10.7766 21.9391 10.5626 21.8267 10.3758C21.7144 10.189 21.5531 10.0365 21.3604 9.93468L4.37501 0.896918C4.23858 0.822445 4.08306 0.790282 3.92828 0.804529C3.7735 0.818776 3.62646 0.878787 3.50592 0.976914L1.89006 0.144189C1.7366 0.0648972 1.56879 0.0171777 1.39657 0.00385143C1.22434 -0.00947486 1.05119 0.0118625 0.887357 0.0666022C0.725263 0.119459 0.575434 0.20433 0.446756 0.31618C0.318079 0.42803 0.213173 0.564583 0.138261 0.717738C-0.179272 1.34933 0.0683339 2.11884 0.694595 2.44676L0.811784 2.50796V6.45193C0.808294 6.61929 0.8574 6.78353 0.952184 6.92151C1.04697 7.05949 1.18265 7.16425 1.34012 7.22105C1.43414 7.25315 1.51283 7.31909 1.56089 7.40604C1.60894 7.49298 1.62292 7.5947 1.60009 7.69138C1.58177 7.76946 1.54041 7.84022 1.48136 7.8945C1.42232 7.94877 1.34833 7.98404 1.26899 7.99573C1.18965 8.00741 1.10863 7.99498 1.03644 7.96005C0.964254 7.92511 0.904237 7.86928 0.86418 7.79981C0.83878 7.75272 0.80419 7.71121 0.762458 7.67773C0.720726 7.64425 0.672701 7.61948 0.621226 7.60489C0.569751 7.59031 0.515873 7.5862 0.462781 7.59281C0.409689 7.59942 0.358463 7.61661 0.312136 7.64337C0.265808 7.67014 0.225321 7.70592 0.193072 7.74861C0.160823 7.7913 0.137467 7.84003 0.124388 7.89191C0.111308 7.94378 0.10877 7.99776 0.116925 8.05064C0.125079 8.10351 0.14376 8.15422 0.171862 8.19974C0.276615 8.38281 0.42807 8.53479 0.610764 8.64019C0.793457 8.74559 1.00085 8.80062 1.21176 8.79967C1.31304 8.79967 1.41392 8.78715 1.51212 8.76247C1.72768 8.70809 1.92365 8.59434 2.07778 8.43413C2.23191 8.27392 2.33801 8.07369 2.38401 7.85619C2.50803 7.26171 2.18015 6.66558 1.6117 6.45193V2.92629L2.34642 3.31064C2.3305 3.46822 2.36149 3.627 2.4355 3.76703C2.5095 3.90707 2.62322 4.02212 2.76239 4.09775L8.2994 6.98426C8.45855 7.06741 8.597 7.18523 8.70455 7.32903L9.67523 8.62531C9.86061 8.87249 10.1005 9.07355 10.3764 9.21283L15.1634 11.6238C14.9488 11.6655 14.7497 11.7651 14.5876 11.9118C14.4254 12.0585 14.3065 12.2467 14.2435 12.4561L13.2436 15.7849C13.2257 15.8551 13.2134 15.9267 13.2068 15.9989C13.2022 16.0374 13.1995 16.0761 13.1988 16.1149V18.3986H10.7991V17.9987C10.7991 17.336 10.2619 16.7988 9.59918 16.7988H8.39929V15.9989C8.39929 15.3362 7.86211 14.799 7.1994 14.799H6.79943V12.7993C6.79943 12.1366 6.26224 11.5994 5.59958 11.5994H2.19603C1.93747 11.5991 1.68573 11.6823 1.47832 11.8367C1.2709 11.9911 1.11889 12.2083 1.04494 12.4561L0.0450776 15.7849C0.0271277 15.8551 0.014822 15.9267 0.00827822 15.9988C0.00365346 16.0374 0.000978269 16.0761 0.000262902 16.1149V21.1983C0.000262902 21.861 0.537447 22.3982 1.20015 22.3982H1.64009C1.82934 23.3302 2.64883 24 3.59989 24C4.55095 24 5.37041 23.3302 5.5597 22.3982H7.23952C7.42877 23.3302 8.24826 24 9.19932 24C10.1504 24 10.9698 23.3302 11.1591 22.3982H13.6389C13.8281 23.3302 14.6476 24 15.5987 24C16.5497 24 17.3692 23.3302 17.5585 22.3982H18.4384C18.6276 23.3302 19.4471 24 20.3982 24C21.3492 24 22.1687 23.3302 22.358 22.3982H22.7979C23.2397 22.3982 23.5978 22.04 23.5978 21.5982V20.6871C23.719 20.6175 23.8198 20.5172 23.89 20.3963C23.9602 20.2754 23.9974 20.1382 23.9978 19.9984V19.1985C23.9977 18.7567 23.6395 18.3986 23.1978 18.3986ZM23.1978 19.9984H6.79954V19.1985H23.1978V19.9984ZM17.188 20.7983H18.8087C18.6268 21.0338 18.5004 21.3072 18.4387 21.5982H17.5584C17.4966 21.3072 17.37 21.0338 17.188 20.7983ZM10.7887 20.7983H14.0092C13.8274 21.0338 13.7009 21.3072 13.6392 21.5982H11.1591C11.0973 21.3072 10.9707 21.0338 10.7887 20.7983ZM6.79954 20.7983H7.60984C7.42803 21.0338 7.30158 21.3072 7.23987 21.5982H6.7995L6.79954 20.7983ZM22.3979 15.1989V18.3986H18.7983V14.399H21.598C22.0397 14.399 22.3979 14.7572 22.3979 15.1989ZM0.85498 1.07247C0.883441 1.01446 0.923231 0.962735 0.972003 0.920351C1.02077 0.877968 1.07754 0.845781 1.13895 0.825689C1.2019 0.804697 1.26842 0.796536 1.33457 0.801691C1.40073 0.806845 1.46518 0.825209 1.52412 0.855697L3.08395 1.66122L2.6484 2.56632L1.06658 1.7388C0.824854 1.61261 0.730368 1.31498 0.85498 1.07247ZM10.3155 8.14573L9.34526 6.84985C9.16552 6.61006 8.93426 6.41366 8.66854 6.27512L3.13394 3.40022L3.99983 1.60321L20.986 10.6422C21.0502 10.6763 21.1038 10.7272 21.1413 10.7895C21.1787 10.8518 21.1984 10.9231 21.1984 10.9958V13.5991H18.7982V12.7992C18.7982 12.1365 18.2611 11.5993 17.5984 11.5993H16.8937L10.7363 8.49844C10.5709 8.41472 10.4269 8.29404 10.3155 8.14573ZM15.009 12.6884C15.0335 12.6051 15.0843 12.5319 15.1538 12.4798C15.2233 12.4277 15.3078 12.3994 15.3946 12.3993H16.3985V15.1989C16.3985 15.4198 16.2194 15.5989 15.9986 15.5989H14.1348L15.009 12.6884ZM13.9988 16.3988H15.9985C16.6612 16.3988 17.1984 15.8616 17.1984 15.1989V12.3993H17.5984C17.8192 12.3993 17.9983 12.5783 17.9983 12.7992V18.3986H13.9988V16.3988ZM9.59926 17.5987C9.82013 17.5987 9.99924 17.7777 9.99924 17.9986V18.3986H8.39941V17.5987H9.59926ZM7.19952 15.5989C7.4204 15.5989 7.5995 15.778 7.5995 15.9988V18.3986H6.79958V15.5989H7.19952ZM5.99963 12.7992V18.3986H3.59989C2.94264 18.3926 2.29975 18.5909 1.76008 18.9661C1.55589 19.1116 1.31279 19.1925 1.06215 19.1985H0.800176V16.3988H3.19992C3.86258 16.3988 4.3998 15.8616 4.3998 15.1989V12.3993H5.59969C5.82057 12.3993 5.99963 12.5783 5.99963 12.7992ZM1.8105 12.6884C1.835 12.6051 1.88577 12.5319 1.95526 12.4798C2.02474 12.4277 2.10921 12.3994 2.19607 12.3993H3.59993V15.1989C3.59993 15.4198 3.42087 15.5989 3.19995 15.5989H0.936199L1.8105 12.6884ZM3.59989 23.1981C2.93723 23.1981 2.4 22.6609 2.4 21.9982C2.4 21.3355 2.93719 20.7983 3.59989 20.7983C4.2626 20.7983 4.79974 21.3355 4.79974 21.9982C4.79978 22.6609 4.26256 23.1981 3.59989 23.1981ZM5.99963 21.5982H5.5597C5.37045 20.6662 4.55095 19.9964 3.59989 19.9964C2.64883 19.9964 1.82937 20.6662 1.64009 21.5982H1.20015C0.979277 21.5982 0.800176 21.4192 0.800176 21.1983V19.9984H1.06215C1.47375 19.9932 1.8742 19.864 2.21123 19.6277C2.6176 19.3424 3.10344 19.1923 3.59989 19.1985H5.99963V21.5982ZM9.19928 23.1981C8.53662 23.1981 7.99939 22.6609 7.99939 21.9982C7.99939 21.3355 8.53658 20.7983 9.19928 20.7983C9.86199 20.7983 10.3991 21.3355 10.3991 21.9982C10.3992 22.6609 9.86195 23.1981 9.19928 23.1981ZM15.5986 23.1981C14.9359 23.1981 14.3987 22.6609 14.3987 21.9982C14.3987 21.3355 14.9359 20.7983 15.5986 20.7983C16.2613 20.7983 16.7985 21.3355 16.7985 21.9982C16.7985 22.6609 16.2613 23.1981 15.5986 23.1981ZM20.3981 23.1981C19.7354 23.1981 19.1982 22.6609 19.1982 21.9982C19.1982 21.3355 19.7354 20.7983 20.3981 20.7983C21.0607 20.7983 21.5979 21.3355 21.5979 21.9982C21.598 22.6609 21.0607 23.1981 20.3981 23.1981ZM22.3579 21.5982C22.2962 21.3072 22.1697 21.0338 21.9879 20.7983H22.7978V21.5982H22.3579Z" fill="#111111"/>
<path d="M21.198 15.1988H19.9981C19.7773 15.1988 19.5982 15.3778 19.5982 15.5987C19.5982 15.8197 19.7772 15.9987 19.9981 15.9987H21.198C21.4189 15.9987 21.598 15.8196 21.598 15.5987C21.598 15.3779 21.4189 15.1988 21.198 15.1988ZM21.198 16.7986H19.9981C19.7773 16.7986 19.5982 16.9777 19.5982 17.1986C19.5982 17.4195 19.7772 17.5985 19.9981 17.5985H21.198C21.4189 17.5985 21.598 17.4195 21.598 17.1986C21.598 16.9777 21.4189 16.7986 21.198 16.7986ZM17.1544 9.96177C17.258 9.76683 17.1841 9.5248 16.9893 9.42103L10.9931 6.23058C10.7981 6.12677 10.5558 6.20073 10.452 6.39574C10.3482 6.59079 10.4222 6.83307 10.6172 6.93687L16.6133 10.1269C16.6597 10.1516 16.7105 10.1669 16.7628 10.172C16.8151 10.1771 16.8679 10.1718 16.9181 10.1564C16.9684 10.1411 17.0151 10.116 17.0556 10.0826C17.0962 10.0492 17.1298 10.0081 17.1544 9.96177Z" fill="#111111"/>
</svg>
